#Comment line ignore any data following # character 
#Hierarchical Translation and Rotation (.htr) file 
[Header]	
#Header keywords are followed by a single value 
FileType HTR		#Single word string
DataType HTRS		#Translation followed by rotation and scale data
FileVersion 1		#integer
NumSegments 84		#integer
NumFrames 2		#integer
DataFrameRate 30		#integer, data frame rate in this file
EulerRotationOrder ZYX
CalibrationUnits mm
RotationUnits Degrees
GlobalAxisofGravity Y
BoneLengthAxis Y
ScaleFactor 1.00
[SegmentNames&Hierarchy]
#CHILD	PARENT
MASTER GLOBAL
root MASTER
chest root
L_mid_tent01 root
R_mid_tent01 root
spine01 root
Bip01_Neck chest
L_humerus chest
R_humerus chest
weapon_bone chest
Bip01_Head Bip01_Neck
eye_left_bone Bip01_Head
eye_right_bone Bip01_Head
L_forearm L_humerus
L_front_hand L_forearm
L_weapon_bone L_forearm
L_front_hand01_01 L_front_hand
L_front_hand02_01 L_front_hand
L_front_hand03_01 L_front_hand
L_front_hand01_02 L_front_hand01_01
L_front_hand02_02 L_front_hand02_01
L_front_hand03_02 L_front_hand03_01
R_forearm R_humerus
R_front_hand R_forearm
R_weapon_bone R_forearm
R_front_hand01_01 R_front_hand
R_front_hand02_01 R_front_hand
R_front_hand03_01 R_front_hand
R_front_hand01_02 R_front_hand01_01
R_front_hand02_02 R_front_hand02_01
R_front_hand03_02 R_front_hand03_01
null_rope01_connect L_mid_tent01
Rope1_Seg01 null_rope01_connect
Rope1_Seg02 Rope1_Seg01
Rope1_Seg03 Rope1_Seg02
Rope1_Seg04 Rope1_Seg03
Rope1_Seg05 Rope1_Seg04
Rope1_Seg06 Rope1_Seg05
Rope1_Seg07 Rope1_Seg06
Rope1_Seg09 Rope1_Seg07
L_mid_hand01 Rope1_Seg09
L_mid_hand02 Rope1_Seg09
L_mid_hand03 Rope1_Seg09
null_rope02_connect R_mid_tent01
Rope2_Seg01 null_rope02_connect
Rope2_Seg02 Rope2_Seg01
Rope2_Seg03 Rope2_Seg02
Rope2_Seg04 Rope2_Seg03
Rope2_Seg05 Rope2_Seg04
Rope2_Seg06 Rope2_Seg05
Rope2_Seg07 Rope2_Seg06
Rope2_Seg09 Rope2_Seg07
R_mid_hand01 Rope2_Seg09
R_mid_hand02 Rope2_Seg09
R_mid_hand03 Rope2_Seg09
spine02 spine01
spine03 spine02
pelvis spine03
null_rope03_connect pelvis
null_rope04_connect pelvis
Rope3_Seg01 null_rope03_connect
Rope3_Seg02 Rope3_Seg01
Rope3_Seg03 Rope3_Seg02
Rope3_Seg04 Rope3_Seg03
Rope3_Seg05 Rope3_Seg04
Rope3_Seg06 Rope3_Seg05
Rope3_Seg07 Rope3_Seg06
Rope3_Seg08 Rope3_Seg07
Rope3_Seg09 Rope3_Seg08
R_rear_hand01 Rope3_Seg09
R_rear_hand02 Rope3_Seg09
R_rear_hand03 Rope3_Seg09
Rope4_Seg01 null_rope04_connect
Rope4_Seg02 Rope4_Seg01
Rope4_Seg03 Rope4_Seg02
Rope4_Seg04 Rope4_Seg03
Rope4_Seg05 Rope4_Seg04
Rope4_Seg06 Rope4_Seg05
Rope4_Seg07 Rope4_Seg06
Rope4_Seg08 Rope4_Seg07
Rope4_Seg09 Rope4_Seg08
L_rear_hand01 Rope4_Seg09
L_rear_hand02 Rope4_Seg09
L_rear_hand03 Rope4_Seg09
[BasePosition]
#SegmentName Tx, Ty, Tz, Rx, Ry, Rz, BoneLength
MASTER 0.000000 0.000000 0.000000 -90.000000 0.000000 0.000000 10.000000 
root 0.000000 0.000000 0.000000 0.000000 0.000000 0.000000 10.000000 
chest 0.000000 0.000000 0.000000 0.000000 0.000000 0.000000 10.000000 
L_mid_tent01 0.000000 0.000000 0.000000 0.000000 0.000000 0.000000 10.000000 
R_mid_tent01 0.000000 0.000000 0.000000 0.000000 0.000000 0.000000 10.000000 
spine01 0.000000 0.000000 0.000000 0.000000 0.000000 0.000000 10.000000 
Bip01_Neck 0.000000 0.000000 0.000000 0.000000 0.000000 0.000000 10.000000 
L_humerus 0.000000 0.000000 0.000000 0.000000 0.000000 0.000000 10.000000 
R_humerus 0.000000 0.000000 0.000000 0.000000 0.000000 0.000000 10.000000 
weapon_bone 0.000000 0.000000 0.000000 0.000000 0.000000 0.000000 10.000000 
Bip01_Head 0.000000 0.000000 0.000000 0.000000 0.000000 0.000000 10.000000 
eye_left_bone 0.000000 0.000000 0.000000 0.000000 0.000000 0.000000 10.000000 
eye_right_bone 0.000000 0.000000 0.000000 0.000000 0.000000 0.000000 10.000000 
L_forearm 0.000000 0.000000 0.000000 0.000000 0.000000 0.000000 10.000000 
L_front_hand 0.000000 0.000000 0.000000 0.000000 0.000000 0.000000 10.000000 
L_weapon_bone 0.000000 0.000000 0.000000 0.000000 0.000000 0.000000 10.000000 
L_front_hand01_01 0.000000 0.000000 0.000000 0.000000 0.000000 0.000000 10.000000 
L_front_hand02_01 0.000000 0.000000 0.000000 0.000000 0.000000 0.000000 10.000000 
L_front_hand03_01 0.000000 0.000000 0.000000 0.000000 0.000000 0.000000 10.000000 
L_front_hand01_02 0.000000 0.000000 0.000000 0.000000 0.000000 0.000000 10.000000 
L_front_hand02_02 0.000000 0.000000 0.000000 0.000000 0.000000 0.000000 10.000000 
L_front_hand03_02 0.000000 0.000000 0.000000 0.000000 0.000000 0.000000 10.000000 
R_forearm 0.000000 0.000000 0.000000 0.000000 0.000000 0.000000 10.000000 
R_front_hand 0.000000 0.000000 0.000000 0.000000 0.000000 0.000000 10.000000 
R_weapon_bone 0.000000 0.000000 0.000000 0.000000 0.000000 0.000000 10.000000 
R_front_hand01_01 0.000000 0.000000 0.000000 0.000000 0.000000 0.000000 10.000000 
R_front_hand02_01 0.000000 0.000000 0.000000 0.000000 0.000000 0.000000 10.000000 
R_front_hand03_01 0.000000 0.000000 0.000000 0.000000 0.000000 0.000000 10.000000 
R_front_hand01_02 0.000000 0.000000 0.000000 0.000000 0.000000 0.000000 10.000000 
R_front_hand02_02 0.000000 0.000000 0.000000 0.000000 0.000000 0.000000 10.000000 
R_front_hand03_02 0.000000 0.000000 0.000000 0.000000 0.000000 0.000000 10.000000 
null_rope01_connect 0.000000 0.000000 0.000000 0.000000 0.000000 0.000000 10.000000 
Rope1_Seg01 0.000000 0.000000 0.000000 0.000000 0.000000 0.000000 10.000000 
Rope1_Seg02 0.000000 0.000000 0.000000 0.000000 0.000000 0.000000 10.000000 
Rope1_Seg03 0.000000 0.000000 0.000000 0.000000 0.000000 0.000000 10.000000 
Rope1_Seg04 0.000000 0.000000 0.000000 0.000000 0.000000 0.000000 10.000000 
Rope1_Seg05 0.000000 0.000000 0.000000 0.000000 0.000000 0.000000 10.000000 
Rope1_Seg06 0.000000 0.000000 0.000000 0.000000 0.000000 0.000000 10.000000 
Rope1_Seg07 0.000000 0.000000 0.000000 0.000000 0.000000 0.000000 10.000000 
Rope1_Seg09 0.000000 0.000000 0.000000 0.000000 0.000000 0.000000 10.000000 
L_mid_hand01 0.000000 0.000000 0.000000 0.000000 0.000000 0.000000 10.000000 
L_mid_hand02 0.000000 0.000000 0.000000 0.000000 0.000000 0.000000 10.000000 
L_mid_hand03 0.000000 0.000000 0.000000 0.000000 0.000000 0.000000 10.000000 
null_rope02_connect 0.000000 0.000000 0.000000 0.000000 0.000000 0.000000 10.000000 
Rope2_Seg01 0.000000 0.000000 0.000000 0.000000 0.000000 0.000000 10.000000 
Rope2_Seg02 0.000000 0.000000 0.000000 0.000000 0.000000 0.000000 10.000000 
Rope2_Seg03 0.000000 0.000000 0.000000 0.000000 0.000000 0.000000 10.000000 
Rope2_Seg04 0.000000 0.000000 0.000000 0.000000 0.000000 0.000000 10.000000 
Rope2_Seg05 0.000000 0.000000 0.000000 0.000000 0.000000 0.000000 10.000000 
Rope2_Seg06 0.000000 0.000000 0.000000 0.000000 0.000000 0.000000 10.000000 
Rope2_Seg07 0.000000 0.000000 0.000000 0.000000 0.000000 0.000000 10.000000 
Rope2_Seg09 0.000000 0.000000 0.000000 0.000000 0.000000 0.000000 10.000000 
R_mid_hand01 0.000000 0.000000 0.000000 0.000000 0.000000 0.000000 10.000000 
R_mid_hand02 0.000000 0.000000 0.000000 0.000000 0.000000 0.000000 10.000000 
R_mid_hand03 0.000000 0.000000 0.000000 0.000000 0.000000 0.000000 10.000000 
spine02 0.000000 0.000000 0.000000 0.000000 0.000000 0.000000 10.000000 
spine03 0.000000 0.000000 0.000000 0.000000 0.000000 0.000000 10.000000 
pelvis 0.000000 0.000000 0.000000 0.000000 0.000000 0.000000 10.000000 
null_rope03_connect 0.000000 0.000000 0.000000 0.000000 0.000000 0.000000 10.000000 
null_rope04_connect 0.000000 0.000000 0.000000 0.000000 0.000000 0.000000 10.000000 
Rope3_Seg01 0.000000 0.000000 0.000000 0.000000 0.000000 0.000000 10.000000 
Rope3_Seg02 0.000000 0.000000 0.000000 0.000000 0.000000 0.000000 10.000000 
Rope3_Seg03 0.000000 0.000000 0.000000 0.000000 0.000000 0.000000 10.000000 
Rope3_Seg04 0.000000 0.000000 0.000000 0.000000 0.000000 0.000000 10.000000 
Rope3_Seg05 0.000000 0.000000 0.000000 0.000000 0.000000 0.000000 10.000000 
Rope3_Seg06 0.000000 0.000000 0.000000 0.000000 0.000000 0.000000 10.000000 
Rope3_Seg07 0.000000 0.000000 0.000000 0.000000 0.000000 0.000000 10.000000 
Rope3_Seg08 0.000000 0.000000 0.000000 0.000000 0.000000 0.000000 10.000000 
Rope3_Seg09 0.000000 0.000000 0.000000 0.000000 0.000000 0.000000 10.000000 
R_rear_hand01 0.000000 0.000000 0.000000 0.000000 0.000000 0.000000 10.000000 
R_rear_hand02 0.000000 0.000000 0.000000 0.000000 0.000000 0.000000 10.000000 
R_rear_hand03 0.000000 0.000000 0.000000 0.000000 0.000000 0.000000 10.000000 
Rope4_Seg01 0.000000 0.000000 0.000000 0.000000 0.000000 0.000000 10.000000 
Rope4_Seg02 0.000000 0.000000 0.000000 0.000000 0.000000 0.000000 10.000000 
Rope4_Seg03 0.000000 0.000000 0.000000 0.000000 0.000000 0.000000 10.000000 
Rope4_Seg04 0.000000 0.000000 0.000000 0.000000 0.000000 0.000000 10.000000 
Rope4_Seg05 0.000000 0.000000 0.000000 0.000000 0.000000 0.000000 10.000000 
Rope4_Seg06 0.000000 0.000000 0.000000 0.000000 0.000000 0.000000 10.000000 
Rope4_Seg07 0.000000 0.000000 0.000000 0.000000 0.000000 0.000000 10.000000 
Rope4_Seg08 0.000000 0.000000 0.000000 0.000000 0.000000 0.000000 10.000000 
Rope4_Seg09 0.000000 0.000000 0.000000 0.000000 0.000000 0.000000 10.000000 
L_rear_hand01 0.000000 0.000000 0.000000 0.000000 0.000000 0.000000 10.000000 
L_rear_hand02 0.000000 0.000000 0.000000 0.000000 0.000000 0.000000 10.000000 
L_rear_hand03 0.000000 0.000000 0.000000 0.000000 0.000000 0.000000 10.000000 
#Beginning of Data. Separated by tabs
#Fr	Tx	Ty	Tz	Rx	Ry	Rz	SF
[MASTER]
75 -4239.088379 -855.491150 207.827393 0.001660 0.001660 0.001660 4329.541504
76 -4267.988281 -899.132690 175.274033 0.001660 0.001660 0.001660 4365.189941
[root]
75 -16.502380 -62.822109 1321.549438 -83.694420 -42.877808 -106.371712 1323.144653
76 -16.502380 -62.822109 1300.691162 -76.985481 -42.878944 -106.372528 1302.311890
[chest]
75 -84.512650 -34.090519 0.000000 3.688836 3.939163 -177.864471 91.129311
76 -84.512650 -34.090519 0.000000 3.052129 3.734429 -178.882385 91.129311
[L_mid_tent01]
75 27.299604 22.177504 -249.918228 41.012924 53.642929 119.592201 252.381119
76 27.299604 22.177504 -249.918228 35.644306 53.371586 113.242256 252.381119
[R_mid_tent01]
75 23.228794 24.509907 226.238495 168.676071 -29.513029 68.743324 228.744751
76 23.228794 24.509907 226.238495 169.151627 -29.677055 67.779533 228.744751
[spine01]
75 -0.361383 -0.195265 0.000000 0.001845 0.001451 13.654368 0.410763
76 -0.361383 -0.195265 0.000000 0.001845 0.001451 13.654368 0.410763
[Bip01_Neck]
75 165.484543 71.581718 0.000119 176.643677 -1.657967 43.431911 180.302734
76 165.484543 71.581718 0.000119 176.643677 -1.657967 43.431911 180.302734
[L_humerus]
75 -13.983130 -135.272980 -120.471481 -174.723114 8.096979 -83.012634 181.680161
76 -13.983130 -135.272980 -120.471481 -175.244415 7.222963 -83.732780 181.680161
[R_humerus]
75 -13.983309 -135.273102 125.287651 -179.978745 2.758559 -90.858521 184.909012
76 -13.983309 -135.273102 125.287651 -178.896042 3.551225 -92.659134 184.909012
[weapon_bone]
75 235.964890 -300.705902 0.000000 0.000000 -89.951546 -128.212341 382.234833
76 235.964890 -300.705902 0.000000 0.000000 -89.951546 -128.212341 382.234833
[Bip01_Head]
75 213.442673 185.718979 11.729827 -14.218784 -9.953182 -0.394630 283.172913
76 213.442719 185.718857 11.731248 -14.993488 -10.230160 -4.003864 283.172943
[eye_left_bone]
75 -24.626970 125.451866 -64.772606 0.000000 -90.000000 -99.840431 143.318359
76 -24.626970 125.451866 -64.772606 0.000000 -90.000000 -99.840431 143.318359
[eye_right_bone]
75 -24.626970 125.451866 64.327362 0.000000 -89.965736 80.156380 143.117676
76 -24.626970 125.451866 64.327362 0.000000 -89.965736 80.156380 143.117676
[L_forearm]
75 322.776093 0.000000 -0.000119 0.000119 -0.002344 -95.807457 322.776093
76 322.776093 0.000000 -0.000119 0.000119 -0.002344 -95.807457 322.776093
[L_front_hand]
75 241.149185 -0.042021 -3.300071 149.893951 -1.837326 -27.423067 241.171753
76 241.149185 -0.042021 -3.300071 149.893951 -1.837326 -27.423067 241.171753
[L_weapon_bone]
75 156.183838 0.000000 0.000000 0.000014 0.000007 0.000001 156.183838
76 156.183838 0.000000 0.000000 0.000014 0.000007 0.000001 156.183838
[L_front_hand01_01]
75 86.095154 20.947098 -0.655860 -0.366594 -0.477154 75.385574 88.609184
76 86.095154 20.947098 -0.655860 -0.366594 -0.477154 75.385574 88.609184
[L_front_hand02_01]
75 86.935165 -11.437475 24.513514 154.399796 -59.883835 -61.369587 91.046425
76 86.935165 -11.437475 24.513514 154.399796 -59.883835 -61.369587 91.046425
[L_front_hand03_01]
75 86.637497 -14.123976 -20.424902 -153.913849 58.118122 -62.702866 90.126129
76 86.637497 -14.123976 -20.424902 -153.913879 58.118130 -62.702892 90.126129
[L_front_hand01_02]
75 71.020905 -0.000179 0.000030 0.000334 -0.002323 -106.379684 71.020905
76 71.020905 -0.000179 0.000030 0.000334 -0.002323 -106.379684 71.020905
[L_front_hand02_02]
75 71.020927 -0.000119 0.000060 0.000334 -0.002323 -106.379684 71.020927
76 71.020927 -0.000119 0.000060 0.000334 -0.002323 -106.379684 71.020927
[L_front_hand03_02]
75 71.020905 -0.000060 0.000060 0.000334 -0.002323 -106.379684 71.020905
76 71.020905 -0.000060 0.000060 0.000334 -0.002323 -106.379684 71.020905
[R_forearm]
75 322.776428 -0.000060 0.000030 0.126797 -0.169468 -37.296169 322.776428
76 322.776428 -0.000060 0.000030 0.126573 -0.169635 -37.144825 322.776428
[R_front_hand]
75 238.847015 -0.006795 2.210259 -8.879457 -10.642941 -26.315098 238.857239
76 238.847015 -0.006795 2.210259 -8.879457 -10.642941 -26.315098 238.857239
[R_weapon_bone]
75 155.664093 0.002503 -0.000030 0.003487 0.001180 -90.988930 155.664078
76 155.664093 0.002503 -0.000030 0.003487 0.001180 -90.988930 155.664078
[R_front_hand01_01]
75 87.624611 14.231146 22.918642 -154.633499 -59.950619 61.746044 91.683487
76 87.624611 14.231146 22.918642 -154.633514 -59.950626 61.746063 91.683487
[R_front_hand02_01]
75 89.356956 14.367283 -19.491137 154.602661 58.302849 63.744389 92.579636
76 89.356956 14.367283 -19.491137 154.602661 58.302849 63.744381 92.579636
[R_front_hand03_01]
75 87.286232 -22.307278 -0.143439 0.162155 -0.423168 -75.767921 90.091743
76 87.286232 -22.307278 -0.143439 0.162155 -0.423168 -75.767921 90.091743
[R_front_hand01_02]
75 71.020905 0.000060 0.000119 0.002323 -0.000334 106.381714 71.020905
76 71.020905 0.000060 0.000119 0.002323 -0.000334 106.381706 71.020905
[R_front_hand02_02]
75 71.020844 -0.000030 -0.000119 0.002323 -0.000334 106.381714 71.020836
76 71.020844 -0.000030 -0.000119 0.002323 -0.000334 106.381706 71.020836
[R_front_hand03_02]
75 71.020905 0.000000 0.000030 0.002323 -0.000334 106.381714 71.020905
76 71.020905 0.000000 0.000030 0.002323 -0.000334 106.381706 71.020905
[null_rope01_connect]
75 328.732483 0.000000 -0.000238 -114.907387 -17.899672 143.863220 328.732483
76 328.732483 0.000000 -0.000238 -111.079277 -26.162184 143.371033 328.732483
[Rope1_Seg01]
75 0.000000 0.000000 0.000000 114.885719 10.320718 155.568542 0.000000
76 0.000000 0.000000 0.000000 115.850258 12.600814 159.991653 0.000000
[Rope1_Seg02]
75 139.999863 -0.000179 0.000000 1.175316 -16.972694 -1.363831 139.999863
76 139.999863 -0.000179 0.000000 3.182486 -18.069132 -3.711033 139.999863
[Rope1_Seg03]
75 139.999924 0.000060 -0.000060 -3.795885 -31.840399 -3.846041 139.999924
76 139.999924 0.000060 -0.000060 0.285558 -32.864677 -7.889934 139.999924
[Rope1_Seg04]
75 139.999924 -0.000060 -0.000119 -10.831091 -28.703436 -8.237487 139.999924
76 139.999924 -0.000060 -0.000119 -6.182461 -27.077349 -9.318498 139.999924
[Rope1_Seg05]
75 139.999832 0.000119 -0.000060 -8.300718 -15.714231 2.075063 139.999832
76 139.999832 0.000119 -0.000060 -4.979469 -14.144602 4.321669 139.999832
[Rope1_Seg06]
75 139.999954 0.000119 -0.000060 -13.407809 -17.676603 6.601448 139.999954
76 139.999954 0.000119 -0.000060 -6.487387 -15.419744 11.001148 139.999954
[Rope1_Seg07]
75 139.999985 0.000060 0.000000 -18.168732 -12.045671 -0.941095 139.999985
76 139.999985 0.000060 0.000000 -11.408314 -11.243746 3.405650 139.999985
[Rope1_Seg09]
75 121.602913 0.000119 -0.000089 -89.793175 -1.359789 0.847147 121.602913
76 121.602913 0.000119 -0.000089 -89.793175 -1.359789 0.847147 121.602913
[L_mid_hand01]
75 103.859421 1.038730 8.195221 130.544373 -67.584534 -38.866943 104.187431
76 103.859421 1.038730 8.195221 130.544373 -67.584534 -38.866943 104.187431
[L_mid_hand02]
75 105.572853 -4.139662 -10.864139 -168.923172 43.409309 -73.498886 106.211075
76 105.572853 -4.139662 -10.864139 -168.923172 43.409309 -73.498886 106.211075
[L_mid_hand03]
75 104.641464 17.579376 -3.913581 -6.012627 17.808174 74.893669 106.179977
76 104.641464 17.579376 -3.913581 -6.012627 17.808174 74.893669 106.179977
[null_rope02_connect]
75 328.732849 0.000179 -0.000119 -106.946297 69.719772 3.813878 328.732849
76 328.732849 0.000179 -0.000119 -112.345871 63.825523 -4.414300 328.732849
[Rope2_Seg01]
75 0.000235 0.000258 0.000000 17.702152 8.033349 -41.273239 0.000349
76 0.000237 0.000260 0.000000 20.455139 3.563068 -41.518768 0.000351
[Rope2_Seg02]
75 139.999741 -0.000060 -0.000119 -91.484932 16.416780 8.440776 139.999756
76 139.999741 -0.000060 -0.000119 -71.434982 16.574247 12.498115 139.999756
[Rope2_Seg03]
75 140.000107 0.000030 0.000000 -27.413698 -15.755177 28.315870 140.000107
76 140.000107 0.000030 0.000000 -31.454475 -11.809813 33.332062 140.000107
[Rope2_Seg04]
75 139.999802 0.000000 -0.000060 -6.468590 -21.629747 16.991615 139.999802
76 139.999802 0.000000 -0.000060 -7.517722 -19.291971 19.363220 139.999802
[Rope2_Seg05]
75 139.999985 -0.000060 0.000119 -3.244090 -15.188794 15.526998 139.999985
76 139.999985 -0.000060 0.000119 -2.494830 -12.735817 14.999416 139.999985
[Rope2_Seg06]
75 139.999893 -0.000030 -0.000119 -0.239805 -10.817643 10.950290 139.999893
76 139.999893 -0.000030 -0.000119 0.074778 -8.111360 8.840545 139.999893
[Rope2_Seg07]
75 139.999893 0.000060 -0.000060 0.627814 -5.839149 5.508361 139.999893
76 139.999893 0.000060 -0.000060 0.567860 -4.552828 4.821310 139.999893
[Rope2_Seg09]
75 121.338966 0.000089 -0.000060 33.793236 -1.359788 -0.847141 121.338966
76 121.338966 0.000089 -0.000060 33.793236 -1.359788 -0.847141 121.338966
[R_mid_hand01]
75 104.680779 11.144459 -10.335981 -16.212063 45.237247 70.462852 105.778534
76 104.680779 11.144459 -10.335981 -16.212063 45.237247 70.462852 105.778534
[R_mid_hand02]
75 104.070427 2.443552 8.231699 49.067368 -67.749771 39.286453 104.424065
76 104.070427 2.443552 8.231699 49.067368 -67.749771 39.286453 104.424065
[R_mid_hand03]
75 106.028137 -11.221827 -5.996406 -177.101105 15.551026 -76.585571 106.788818
76 106.028137 -11.221827 -5.996406 -177.101105 15.551026 -76.585571 106.788818
[spine02]
75 129.756927 0.001550 0.000119 -1.023899 -3.926965 6.770993 129.756927
76 129.756927 0.001550 0.000119 -1.023899 -3.926965 6.770993 129.756927
[spine03]
75 78.613754 0.087386 -4.898740 1.040680 4.146419 4.212375 78.766289
76 78.613754 0.087387 -4.898738 1.040681 4.146420 4.212376 78.766289
[pelvis]
75 169.435242 0.051022 0.000000 0.019518 -0.190233 -10.721436 169.435257
76 169.435242 0.051022 0.000000 0.019518 -0.190233 -10.721436 169.435257
[null_rope03_connect]
75 -1.257226 -2.466202 137.391083 -70.159744 -76.982559 -170.165390 137.418976
76 -1.257226 -2.466202 137.391083 -39.167259 -78.009270 159.544708 137.418976
[null_rope04_connect]
75 -1.259640 -2.480268 -137.844437 -70.159744 -76.982559 -170.165390 137.872513
76 -1.259640 -2.480268 -137.844437 -39.167259 -78.009270 159.544708 137.872513
[Rope3_Seg01]
75 -0.000006 0.000082 -0.000153 -146.197464 -44.535801 -61.437805 0.000173
76 -0.000006 0.000084 -0.000153 -149.479050 -47.664665 -58.805950 0.000174
[Rope3_Seg02]
75 139.999924 -0.000119 0.000060 -3.796588 -15.449273 -38.048954 139.999924
76 139.999924 -0.000119 0.000060 -10.647990 -11.879525 -38.629940 139.999924
[Rope3_Seg03]
75 139.999924 -0.000119 0.000119 -63.021629 -8.626336 -24.243155 139.999924
76 139.999924 -0.000119 0.000119 -68.884132 -3.826347 -26.157099 139.999924
[Rope3_Seg04]
75 139.999924 0.000119 0.000000 -84.792892 32.887131 -22.705481 139.999924
76 139.999924 0.000119 0.000000 -62.147167 40.148804 -13.374323 139.999924
[Rope3_Seg05]
75 139.999924 -0.000238 0.000060 1.226746 17.639091 21.593124 139.999924
76 139.999924 -0.000238 0.000060 0.530749 20.117224 20.429823 139.999924
[Rope3_Seg06]
75 139.999893 -0.000119 -0.000060 0.361047 4.912146 5.831254 139.999893
76 139.999893 -0.000119 -0.000060 0.355939 5.309334 5.392010 139.999893
[Rope3_Seg07]
75 139.999771 0.000060 -0.000119 0.474956 2.744397 3.229113 139.999771
76 139.999771 0.000060 -0.000119 0.492870 2.928015 2.953314 139.999771
[Rope3_Seg08]
75 139.999985 -0.000060 0.000000 0.515322 1.536938 1.784325 139.999985
76 139.999985 -0.000060 0.000000 0.534258 1.631358 1.621799 139.999985
[Rope3_Seg09]
75 90.185997 -0.000179 -0.000060 89.793228 -1.359877 -0.847183 90.185997
76 90.185997 -0.000179 -0.000060 89.793228 -1.359877 -0.847183 90.185997
[R_rear_hand01]
75 103.366196 -6.073594 -10.757982 -177.714203 24.565960 -73.910950 104.101845
76 103.366196 -6.073594 -10.757982 -177.714203 24.565960 -73.910950 104.101845
[R_rear_hand02]
75 100.509819 12.039542 -7.992327 -12.874829 36.868488 72.167213 101.543350
76 100.509819 12.039542 -7.992327 -12.874829 36.868488 72.167213 101.543350
[R_rear_hand03]
75 101.539970 5.215704 5.435467 71.484581 -71.816628 21.513813 101.819031
76 101.539970 5.215704 5.435467 71.484581 -71.816628 21.513813 101.819031
[Rope4_Seg01]
75 0.000000 0.000106 0.000000 72.408531 -21.756853 -164.670074 0.000106
76 0.000000 0.000107 0.000000 70.979797 -20.898420 -165.175446 0.000107
[Rope4_Seg02]
75 139.999985 0.000060 0.000119 -20.909586 -17.231937 -11.401851 139.999985
76 139.999985 0.000060 0.000119 -68.574059 -17.957022 -17.542244 139.999985
[Rope4_Seg03]
75 139.999924 0.000000 -0.000238 -131.324112 -15.289983 -29.132076 139.999924
76 139.999924 0.000000 -0.000238 -78.497673 16.618877 -33.393337 139.999924
[Rope4_Seg04]
75 139.999985 0.000000 0.000119 -11.470582 32.446888 0.131908 139.999985
76 139.999985 0.000000 0.000119 -8.593937 26.464478 -0.871312 139.999985
[Rope4_Seg05]
75 139.999802 -0.000060 -0.000119 -2.757057 15.201809 -0.106666 139.999802
76 139.999802 -0.000060 -0.000119 -2.428967 11.010466 -1.450033 139.999802
[Rope4_Seg06]
75 139.999924 0.000000 0.000060 -0.283674 5.991096 0.888213 139.999924
76 139.999924 0.000000 0.000060 -0.384307 4.949733 0.232590 139.999924
[Rope4_Seg07]
75 139.999802 0.000000 0.000000 -0.016079 3.548412 0.545469 139.999802
76 139.999802 0.000000 0.000000 -0.088007 3.053654 0.162592 139.999802
[Rope4_Seg08]
75 139.999924 0.000000 0.000119 -1.516264 2.043761 0.315958 139.999924
76 139.999924 0.000000 0.000119 -1.554886 1.798557 0.100925 139.999924
[Rope4_Seg09]
75 90.185791 0.000060 0.000060 -135.617828 2.228885 0.850567 90.185791
76 90.185791 0.000060 0.000060 -135.617828 2.228885 0.850567 90.185791
[L_rear_hand01]
75 101.696655 -8.392275 -7.654577 -12.874829 -36.868488 107.832764 102.329041
76 101.696655 -8.392275 -7.654577 -12.874829 -36.868488 107.832764 102.329041
[L_rear_hand02]
75 102.726799 -1.568258 5.773216 71.484581 71.816628 158.486160 102.900848
76 102.726799 -1.568258 5.773216 71.484581 71.816628 158.486160 102.900848
[L_rear_hand03]
75 104.552910 9.721220 -10.420293 -177.714203 -24.565960 -106.089035 105.519653
76 104.552910 9.721220 -10.420293 -177.714203 -24.565960 -106.089035 105.519653
